<mxfile host="Electron" modified="2024-02-26T11:06:54.718Z" agent="Mozilla/5.0 (Windows NT 10.0; Win64; x64) AppleWebKit/537.36 (KHTML, like Gecko) draw.io/22.1.11 Chrome/114.0.5735.289 Electron/25.9.8 Safari/537.36" etag="SX_atrTKdYySMQ-BTQdX" version="22.1.11" type="device">
  <diagram name="Страница — 1" id="suEWs-bwAjbL_W_TFkOb">
    <mxGraphModel dx="2046" dy="713" grid="1" gridSize="10" guides="1" tooltips="1" connect="1" arrows="1" fold="1" page="1" pageScale="1" pageWidth="827" pageHeight="1169" math="0" shadow="0">
      <root>
        <mxCell id="0" />
        <mxCell id="1" parent="0" />
        <mxCell id="GiPp7j_yuH_umTJ94Pbd-3" value="" style="edgeStyle=orthogonalEdgeStyle;rounded=0;orthogonalLoop=1;jettySize=auto;html=1;" edge="1" parent="1" source="GiPp7j_yuH_umTJ94Pbd-1" target="GiPp7j_yuH_umTJ94Pbd-2">
          <mxGeometry relative="1" as="geometry" />
        </mxCell>
        <mxCell id="GiPp7j_yuH_umTJ94Pbd-1" value="int main() {" style="ellipse;whiteSpace=wrap;html=1;" vertex="1" parent="1">
          <mxGeometry x="1225" y="75" width="100" height="60" as="geometry" />
        </mxCell>
        <mxCell id="GiPp7j_yuH_umTJ94Pbd-99" value="" style="edgeStyle=orthogonalEdgeStyle;rounded=0;orthogonalLoop=1;jettySize=auto;html=1;" edge="1" parent="1" source="GiPp7j_yuH_umTJ94Pbd-2" target="GiPp7j_yuH_umTJ94Pbd-98">
          <mxGeometry relative="1" as="geometry" />
        </mxCell>
        <mxCell id="GiPp7j_yuH_umTJ94Pbd-2" value="solveNQueens();" style="whiteSpace=wrap;html=1;" vertex="1" parent="1">
          <mxGeometry x="1220" y="215" width="110" height="50" as="geometry" />
        </mxCell>
        <mxCell id="GiPp7j_yuH_umTJ94Pbd-6" value="" style="edgeStyle=orthogonalEdgeStyle;rounded=0;orthogonalLoop=1;jettySize=auto;html=1;" edge="1" parent="1" source="GiPp7j_yuH_umTJ94Pbd-4" target="GiPp7j_yuH_umTJ94Pbd-5">
          <mxGeometry relative="1" as="geometry" />
        </mxCell>
        <mxCell id="GiPp7j_yuH_umTJ94Pbd-4" value="bool isSafe(int board[N][N], int row, int col) {" style="shape=process;whiteSpace=wrap;html=1;backgroundOutline=1;" vertex="1" parent="1">
          <mxGeometry x="-480" y="40" width="200" height="60" as="geometry" />
        </mxCell>
        <mxCell id="GiPp7j_yuH_umTJ94Pbd-8" value="" style="edgeStyle=orthogonalEdgeStyle;rounded=0;orthogonalLoop=1;jettySize=auto;html=1;" edge="1" parent="1" source="GiPp7j_yuH_umTJ94Pbd-5" target="GiPp7j_yuH_umTJ94Pbd-7">
          <mxGeometry relative="1" as="geometry" />
        </mxCell>
        <mxCell id="GiPp7j_yuH_umTJ94Pbd-17" value="" style="edgeStyle=orthogonalEdgeStyle;rounded=0;orthogonalLoop=1;jettySize=auto;html=1;" edge="1" parent="1" source="GiPp7j_yuH_umTJ94Pbd-5" target="GiPp7j_yuH_umTJ94Pbd-16">
          <mxGeometry relative="1" as="geometry">
            <Array as="points">
              <mxPoint x="-200" y="170" />
              <mxPoint x="-200" y="480" />
              <mxPoint x="-380" y="480" />
            </Array>
          </mxGeometry>
        </mxCell>
        <mxCell id="GiPp7j_yuH_umTJ94Pbd-5" value="&amp;nbsp;for (int i = 0; i &amp;lt; row; ++i)" style="shape=hexagon;perimeter=hexagonPerimeter2;whiteSpace=wrap;html=1;fixedSize=1;" vertex="1" parent="1">
          <mxGeometry x="-455" y="150" width="150" height="40" as="geometry" />
        </mxCell>
        <mxCell id="GiPp7j_yuH_umTJ94Pbd-12" value="" style="edgeStyle=orthogonalEdgeStyle;rounded=0;orthogonalLoop=1;jettySize=auto;html=1;" edge="1" parent="1" source="GiPp7j_yuH_umTJ94Pbd-7" target="GiPp7j_yuH_umTJ94Pbd-11">
          <mxGeometry relative="1" as="geometry" />
        </mxCell>
        <mxCell id="GiPp7j_yuH_umTJ94Pbd-13" style="edgeStyle=orthogonalEdgeStyle;rounded=0;orthogonalLoop=1;jettySize=auto;html=1;" edge="1" parent="1" source="GiPp7j_yuH_umTJ94Pbd-7">
          <mxGeometry relative="1" as="geometry">
            <mxPoint x="-370" y="420" as="targetPoint" />
            <Array as="points">
              <mxPoint x="-259" y="265" />
              <mxPoint x="-259" y="370" />
              <mxPoint x="-370" y="370" />
            </Array>
          </mxGeometry>
        </mxCell>
        <mxCell id="GiPp7j_yuH_umTJ94Pbd-7" value="if (board[i][col])" style="rhombus;whiteSpace=wrap;html=1;" vertex="1" parent="1">
          <mxGeometry x="-440" y="230" width="120" height="70" as="geometry" />
        </mxCell>
        <mxCell id="GiPp7j_yuH_umTJ94Pbd-14" style="edgeStyle=orthogonalEdgeStyle;rounded=0;orthogonalLoop=1;jettySize=auto;html=1;" edge="1" parent="1" source="GiPp7j_yuH_umTJ94Pbd-11">
          <mxGeometry relative="1" as="geometry">
            <mxPoint x="-370" y="420" as="targetPoint" />
            <Array as="points">
              <mxPoint x="-500" y="370" />
              <mxPoint x="-370" y="370" />
            </Array>
          </mxGeometry>
        </mxCell>
        <mxCell id="GiPp7j_yuH_umTJ94Pbd-11" value="return false;" style="whiteSpace=wrap;html=1;" vertex="1" parent="1">
          <mxGeometry x="-545" y="310" width="85" height="30" as="geometry" />
        </mxCell>
        <mxCell id="GiPp7j_yuH_umTJ94Pbd-15" value="" style="endArrow=classic;html=1;rounded=0;entryX=0;entryY=0.5;entryDx=0;entryDy=0;" edge="1" parent="1" target="GiPp7j_yuH_umTJ94Pbd-5">
          <mxGeometry width="50" height="50" relative="1" as="geometry">
            <mxPoint x="-370" y="420" as="sourcePoint" />
            <mxPoint x="-370" y="460" as="targetPoint" />
            <Array as="points">
              <mxPoint x="-370" y="460" />
              <mxPoint x="-450" y="460" />
              <mxPoint x="-480" y="460" />
              <mxPoint x="-590" y="460" />
              <mxPoint x="-590" y="170" />
            </Array>
          </mxGeometry>
        </mxCell>
        <mxCell id="GiPp7j_yuH_umTJ94Pbd-19" value="" style="edgeStyle=orthogonalEdgeStyle;rounded=0;orthogonalLoop=1;jettySize=auto;html=1;" edge="1" parent="1" source="GiPp7j_yuH_umTJ94Pbd-16" target="GiPp7j_yuH_umTJ94Pbd-18">
          <mxGeometry relative="1" as="geometry" />
        </mxCell>
        <mxCell id="GiPp7j_yuH_umTJ94Pbd-35" value="" style="edgeStyle=orthogonalEdgeStyle;rounded=0;orthogonalLoop=1;jettySize=auto;html=1;" edge="1" parent="1" source="GiPp7j_yuH_umTJ94Pbd-16" target="GiPp7j_yuH_umTJ94Pbd-34">
          <mxGeometry relative="1" as="geometry">
            <Array as="points">
              <mxPoint x="-180" y="545" />
              <mxPoint x="-180" y="790" />
              <mxPoint x="-385" y="790" />
            </Array>
          </mxGeometry>
        </mxCell>
        <mxCell id="GiPp7j_yuH_umTJ94Pbd-16" value="for (int i = row, j = col; i &amp;gt;= 0 &amp;amp;&amp;amp; j &amp;gt;= 0; --i, --j)" style="shape=hexagon;perimeter=hexagonPerimeter2;whiteSpace=wrap;html=1;fixedSize=1;" vertex="1" parent="1">
          <mxGeometry x="-520" y="520" width="270" height="50" as="geometry" />
        </mxCell>
        <mxCell id="GiPp7j_yuH_umTJ94Pbd-22" value="" style="edgeStyle=orthogonalEdgeStyle;rounded=0;orthogonalLoop=1;jettySize=auto;html=1;exitX=0;exitY=0.5;exitDx=0;exitDy=0;" edge="1" parent="1" source="GiPp7j_yuH_umTJ94Pbd-18">
          <mxGeometry relative="1" as="geometry">
            <mxPoint x="-452.5" y="650" as="sourcePoint" />
            <mxPoint x="-510" y="680" as="targetPoint" />
            <Array as="points">
              <mxPoint x="-510" y="650" />
            </Array>
          </mxGeometry>
        </mxCell>
        <mxCell id="GiPp7j_yuH_umTJ94Pbd-28" style="edgeStyle=orthogonalEdgeStyle;rounded=0;orthogonalLoop=1;jettySize=auto;html=1;" edge="1" parent="1" source="GiPp7j_yuH_umTJ94Pbd-18">
          <mxGeometry relative="1" as="geometry">
            <mxPoint x="-380" y="750" as="targetPoint" />
            <Array as="points">
              <mxPoint x="-269" y="650" />
              <mxPoint x="-269" y="740" />
              <mxPoint x="-380" y="740" />
            </Array>
          </mxGeometry>
        </mxCell>
        <mxCell id="GiPp7j_yuH_umTJ94Pbd-18" value="&amp;nbsp;if (board[i][j])" style="rhombus;whiteSpace=wrap;html=1;" vertex="1" parent="1">
          <mxGeometry x="-432.5" y="610" width="95" height="80" as="geometry" />
        </mxCell>
        <mxCell id="GiPp7j_yuH_umTJ94Pbd-29" style="edgeStyle=orthogonalEdgeStyle;rounded=0;orthogonalLoop=1;jettySize=auto;html=1;" edge="1" parent="1" source="GiPp7j_yuH_umTJ94Pbd-21">
          <mxGeometry relative="1" as="geometry">
            <mxPoint x="-380" y="750" as="targetPoint" />
            <Array as="points">
              <mxPoint x="-510" y="740" />
              <mxPoint x="-379" y="740" />
              <mxPoint x="-379" y="750" />
            </Array>
          </mxGeometry>
        </mxCell>
        <mxCell id="GiPp7j_yuH_umTJ94Pbd-21" value="&amp;nbsp;return false;" style="whiteSpace=wrap;html=1;" vertex="1" parent="1">
          <mxGeometry x="-550" y="680" width="80" height="40" as="geometry" />
        </mxCell>
        <mxCell id="GiPp7j_yuH_umTJ94Pbd-30" value="" style="endArrow=none;html=1;rounded=0;" edge="1" parent="1">
          <mxGeometry width="50" height="50" relative="1" as="geometry">
            <mxPoint x="-380.42" y="740" as="sourcePoint" />
            <mxPoint x="-380" y="780" as="targetPoint" />
          </mxGeometry>
        </mxCell>
        <mxCell id="GiPp7j_yuH_umTJ94Pbd-31" value="" style="endArrow=none;html=1;rounded=0;" edge="1" parent="1">
          <mxGeometry width="50" height="50" relative="1" as="geometry">
            <mxPoint x="-610" y="550" as="sourcePoint" />
            <mxPoint x="-610" y="780" as="targetPoint" />
          </mxGeometry>
        </mxCell>
        <mxCell id="GiPp7j_yuH_umTJ94Pbd-32" value="" style="endArrow=none;html=1;rounded=0;" edge="1" parent="1">
          <mxGeometry width="50" height="50" relative="1" as="geometry">
            <mxPoint x="-610" y="780" as="sourcePoint" />
            <mxPoint x="-380" y="780" as="targetPoint" />
          </mxGeometry>
        </mxCell>
        <mxCell id="GiPp7j_yuH_umTJ94Pbd-33" value="" style="endArrow=classic;html=1;rounded=0;" edge="1" parent="1">
          <mxGeometry width="50" height="50" relative="1" as="geometry">
            <mxPoint x="-610" y="544.58" as="sourcePoint" />
            <mxPoint x="-520" y="544.58" as="targetPoint" />
          </mxGeometry>
        </mxCell>
        <mxCell id="GiPp7j_yuH_umTJ94Pbd-37" value="" style="edgeStyle=orthogonalEdgeStyle;rounded=0;orthogonalLoop=1;jettySize=auto;html=1;" edge="1" parent="1" source="GiPp7j_yuH_umTJ94Pbd-34" target="GiPp7j_yuH_umTJ94Pbd-36">
          <mxGeometry relative="1" as="geometry" />
        </mxCell>
        <mxCell id="GiPp7j_yuH_umTJ94Pbd-45" value="" style="edgeStyle=orthogonalEdgeStyle;rounded=0;orthogonalLoop=1;jettySize=auto;html=1;" edge="1" parent="1" source="GiPp7j_yuH_umTJ94Pbd-34" target="GiPp7j_yuH_umTJ94Pbd-44">
          <mxGeometry relative="1" as="geometry">
            <Array as="points">
              <mxPoint x="-240" y="845" />
              <mxPoint x="-240" y="1100" />
              <mxPoint x="-385" y="1100" />
            </Array>
          </mxGeometry>
        </mxCell>
        <mxCell id="GiPp7j_yuH_umTJ94Pbd-34" value="for (int i = row, j = col; i &gt;= 0 &amp;&amp; j &lt; N; --i, ++j)" style="shape=hexagon;perimeter=hexagonPerimeter2;whiteSpace=wrap;html=1;fixedSize=1;" vertex="1" parent="1">
          <mxGeometry x="-510" y="820" width="250" height="50" as="geometry" />
        </mxCell>
        <mxCell id="GiPp7j_yuH_umTJ94Pbd-39" value="" style="edgeStyle=orthogonalEdgeStyle;rounded=0;orthogonalLoop=1;jettySize=auto;html=1;" edge="1" parent="1" source="GiPp7j_yuH_umTJ94Pbd-36" target="GiPp7j_yuH_umTJ94Pbd-38">
          <mxGeometry relative="1" as="geometry" />
        </mxCell>
        <mxCell id="GiPp7j_yuH_umTJ94Pbd-41" style="edgeStyle=orthogonalEdgeStyle;rounded=0;orthogonalLoop=1;jettySize=auto;html=1;" edge="1" parent="1" source="GiPp7j_yuH_umTJ94Pbd-36">
          <mxGeometry relative="1" as="geometry">
            <mxPoint x="-390" y="1040" as="targetPoint" />
            <Array as="points">
              <mxPoint x="-290" y="940" />
              <mxPoint x="-290" y="1040" />
              <mxPoint x="-385" y="1040" />
            </Array>
          </mxGeometry>
        </mxCell>
        <mxCell id="GiPp7j_yuH_umTJ94Pbd-36" value="if (board[i][j])" style="rhombus;whiteSpace=wrap;html=1;" vertex="1" parent="1">
          <mxGeometry x="-437.5" y="900" width="105" height="80" as="geometry" />
        </mxCell>
        <mxCell id="GiPp7j_yuH_umTJ94Pbd-40" style="edgeStyle=orthogonalEdgeStyle;rounded=0;orthogonalLoop=1;jettySize=auto;html=1;" edge="1" parent="1" source="GiPp7j_yuH_umTJ94Pbd-38">
          <mxGeometry relative="1" as="geometry">
            <mxPoint x="-390" y="1040" as="targetPoint" />
            <Array as="points">
              <mxPoint x="-500" y="1040" />
              <mxPoint x="-390" y="1040" />
            </Array>
          </mxGeometry>
        </mxCell>
        <mxCell id="GiPp7j_yuH_umTJ94Pbd-38" value="return false;" style="whiteSpace=wrap;html=1;" vertex="1" parent="1">
          <mxGeometry x="-550" y="990" width="100" height="30" as="geometry" />
        </mxCell>
        <mxCell id="GiPp7j_yuH_umTJ94Pbd-42" value="" style="endArrow=none;html=1;rounded=0;" edge="1" parent="1">
          <mxGeometry width="50" height="50" relative="1" as="geometry">
            <mxPoint x="-390" y="1040" as="sourcePoint" />
            <mxPoint x="-390" y="1090" as="targetPoint" />
          </mxGeometry>
        </mxCell>
        <mxCell id="GiPp7j_yuH_umTJ94Pbd-43" value="" style="endArrow=classic;html=1;rounded=0;entryX=0;entryY=0.5;entryDx=0;entryDy=0;" edge="1" parent="1" target="GiPp7j_yuH_umTJ94Pbd-34">
          <mxGeometry width="50" height="50" relative="1" as="geometry">
            <mxPoint x="-390" y="1090" as="sourcePoint" />
            <mxPoint x="-580" y="1090" as="targetPoint" />
            <Array as="points">
              <mxPoint x="-560" y="1090" />
              <mxPoint x="-560" y="845" />
            </Array>
          </mxGeometry>
        </mxCell>
        <mxCell id="GiPp7j_yuH_umTJ94Pbd-44" value="return true; }" style="whiteSpace=wrap;html=1;" vertex="1" parent="1">
          <mxGeometry x="-432.5" y="1120" width="95" height="30" as="geometry" />
        </mxCell>
        <mxCell id="GiPp7j_yuH_umTJ94Pbd-48" value="" style="edgeStyle=orthogonalEdgeStyle;rounded=0;orthogonalLoop=1;jettySize=auto;html=1;" edge="1" parent="1" source="GiPp7j_yuH_umTJ94Pbd-46" target="GiPp7j_yuH_umTJ94Pbd-47">
          <mxGeometry relative="1" as="geometry" />
        </mxCell>
        <mxCell id="GiPp7j_yuH_umTJ94Pbd-46" value="bool solveNQueensUtil(int board[N][N], int row) {" style="shape=process;whiteSpace=wrap;html=1;backgroundOutline=1;" vertex="1" parent="1">
          <mxGeometry x="20" y="50" width="330" height="60" as="geometry" />
        </mxCell>
        <mxCell id="GiPp7j_yuH_umTJ94Pbd-50" value="" style="edgeStyle=orthogonalEdgeStyle;rounded=0;orthogonalLoop=1;jettySize=auto;html=1;" edge="1" parent="1" source="GiPp7j_yuH_umTJ94Pbd-47" target="GiPp7j_yuH_umTJ94Pbd-49">
          <mxGeometry relative="1" as="geometry" />
        </mxCell>
        <mxCell id="GiPp7j_yuH_umTJ94Pbd-52" style="edgeStyle=orthogonalEdgeStyle;rounded=0;orthogonalLoop=1;jettySize=auto;html=1;" edge="1" parent="1" source="GiPp7j_yuH_umTJ94Pbd-47">
          <mxGeometry relative="1" as="geometry">
            <mxPoint x="180" y="310" as="targetPoint" />
            <Array as="points">
              <mxPoint x="240" y="200" />
              <mxPoint x="240" y="310" />
            </Array>
          </mxGeometry>
        </mxCell>
        <mxCell id="GiPp7j_yuH_umTJ94Pbd-47" value="if (row == N)" style="rhombus;whiteSpace=wrap;html=1;" vertex="1" parent="1">
          <mxGeometry x="145" y="160" width="80" height="80" as="geometry" />
        </mxCell>
        <mxCell id="GiPp7j_yuH_umTJ94Pbd-51" style="edgeStyle=orthogonalEdgeStyle;rounded=0;orthogonalLoop=1;jettySize=auto;html=1;" edge="1" parent="1" source="GiPp7j_yuH_umTJ94Pbd-49">
          <mxGeometry relative="1" as="geometry">
            <mxPoint x="180" y="310" as="targetPoint" />
            <Array as="points">
              <mxPoint x="100" y="310" />
            </Array>
          </mxGeometry>
        </mxCell>
        <mxCell id="GiPp7j_yuH_umTJ94Pbd-49" value="return true;" style="whiteSpace=wrap;html=1;" vertex="1" parent="1">
          <mxGeometry x="60" y="250" width="80" height="30" as="geometry" />
        </mxCell>
        <mxCell id="GiPp7j_yuH_umTJ94Pbd-53" value="" style="endArrow=classic;html=1;rounded=0;" edge="1" parent="1">
          <mxGeometry width="50" height="50" relative="1" as="geometry">
            <mxPoint x="180" y="310" as="sourcePoint" />
            <mxPoint x="180" y="380" as="targetPoint" />
          </mxGeometry>
        </mxCell>
        <mxCell id="GiPp7j_yuH_umTJ94Pbd-57" value="" style="edgeStyle=orthogonalEdgeStyle;rounded=0;orthogonalLoop=1;jettySize=auto;html=1;" edge="1" parent="1" source="GiPp7j_yuH_umTJ94Pbd-55" target="GiPp7j_yuH_umTJ94Pbd-56">
          <mxGeometry relative="1" as="geometry" />
        </mxCell>
        <mxCell id="GiPp7j_yuH_umTJ94Pbd-77" value="" style="edgeStyle=orthogonalEdgeStyle;rounded=0;orthogonalLoop=1;jettySize=auto;html=1;" edge="1" parent="1" source="GiPp7j_yuH_umTJ94Pbd-55" target="GiPp7j_yuH_umTJ94Pbd-76">
          <mxGeometry relative="1" as="geometry" />
        </mxCell>
        <mxCell id="GiPp7j_yuH_umTJ94Pbd-55" value="for (int col = 0; col &amp;lt; N; ++col) {" style="shape=hexagon;perimeter=hexagonPerimeter2;whiteSpace=wrap;html=1;fixedSize=1;" vertex="1" parent="1">
          <mxGeometry x="90" y="380" width="180" height="50" as="geometry" />
        </mxCell>
        <mxCell id="GiPp7j_yuH_umTJ94Pbd-58" style="edgeStyle=orthogonalEdgeStyle;rounded=0;orthogonalLoop=1;jettySize=auto;html=1;" edge="1" parent="1" source="GiPp7j_yuH_umTJ94Pbd-56" target="GiPp7j_yuH_umTJ94Pbd-59">
          <mxGeometry relative="1" as="geometry">
            <mxPoint x="50" y="550" as="targetPoint" />
            <Array as="points">
              <mxPoint x="80" y="500" />
            </Array>
          </mxGeometry>
        </mxCell>
        <mxCell id="GiPp7j_yuH_umTJ94Pbd-73" style="edgeStyle=orthogonalEdgeStyle;rounded=0;orthogonalLoop=1;jettySize=auto;html=1;" edge="1" parent="1" source="GiPp7j_yuH_umTJ94Pbd-56">
          <mxGeometry relative="1" as="geometry">
            <mxPoint x="230" y="960" as="targetPoint" />
            <Array as="points">
              <mxPoint x="310" y="500" />
              <mxPoint x="310" y="960" />
            </Array>
          </mxGeometry>
        </mxCell>
        <mxCell id="GiPp7j_yuH_umTJ94Pbd-56" value="if (isSafe(board, row, col)) {" style="rhombus;whiteSpace=wrap;html=1;" vertex="1" parent="1">
          <mxGeometry x="95" y="460" width="170" height="80" as="geometry" />
        </mxCell>
        <mxCell id="GiPp7j_yuH_umTJ94Pbd-60" style="edgeStyle=orthogonalEdgeStyle;rounded=0;orthogonalLoop=1;jettySize=auto;html=1;entryX=0.5;entryY=0;entryDx=0;entryDy=0;" edge="1" parent="1" source="GiPp7j_yuH_umTJ94Pbd-59" target="GiPp7j_yuH_umTJ94Pbd-64">
          <mxGeometry relative="1" as="geometry">
            <mxPoint x="190" y="620" as="targetPoint" />
            <Array as="points">
              <mxPoint x="75" y="640" />
              <mxPoint x="75" y="640" />
            </Array>
          </mxGeometry>
        </mxCell>
        <mxCell id="GiPp7j_yuH_umTJ94Pbd-59" value="&amp;nbsp;board[row][col] = 1;" style="rounded=0;whiteSpace=wrap;html=1;" vertex="1" parent="1">
          <mxGeometry x="20" y="555" width="110" height="30" as="geometry" />
        </mxCell>
        <mxCell id="GiPp7j_yuH_umTJ94Pbd-65" style="edgeStyle=orthogonalEdgeStyle;rounded=0;orthogonalLoop=1;jettySize=auto;html=1;" edge="1" parent="1" source="GiPp7j_yuH_umTJ94Pbd-64" target="GiPp7j_yuH_umTJ94Pbd-66">
          <mxGeometry relative="1" as="geometry">
            <mxPoint x="-80" y="790" as="targetPoint" />
            <Array as="points">
              <mxPoint x="-60" y="725" />
            </Array>
          </mxGeometry>
        </mxCell>
        <mxCell id="GiPp7j_yuH_umTJ94Pbd-68" style="edgeStyle=orthogonalEdgeStyle;rounded=0;orthogonalLoop=1;jettySize=auto;html=1;" edge="1" parent="1" source="GiPp7j_yuH_umTJ94Pbd-64">
          <mxGeometry relative="1" as="geometry">
            <mxPoint x="90" y="850" as="targetPoint" />
            <Array as="points">
              <mxPoint x="210" y="725" />
              <mxPoint x="210" y="850" />
            </Array>
          </mxGeometry>
        </mxCell>
        <mxCell id="GiPp7j_yuH_umTJ94Pbd-64" value="if (solveNQueensUtil(board, row + 1))" style="rhombus;whiteSpace=wrap;html=1;" vertex="1" parent="1">
          <mxGeometry x="-50" y="670" width="250" height="110" as="geometry" />
        </mxCell>
        <mxCell id="GiPp7j_yuH_umTJ94Pbd-67" style="edgeStyle=orthogonalEdgeStyle;rounded=0;orthogonalLoop=1;jettySize=auto;html=1;" edge="1" parent="1" source="GiPp7j_yuH_umTJ94Pbd-66">
          <mxGeometry relative="1" as="geometry">
            <mxPoint x="90" y="850" as="targetPoint" />
            <Array as="points">
              <mxPoint x="-65" y="850" />
            </Array>
          </mxGeometry>
        </mxCell>
        <mxCell id="GiPp7j_yuH_umTJ94Pbd-66" value="&amp;nbsp;return true;" style="rounded=0;whiteSpace=wrap;html=1;" vertex="1" parent="1">
          <mxGeometry x="-110" y="800" width="90" height="30" as="geometry" />
        </mxCell>
        <mxCell id="GiPp7j_yuH_umTJ94Pbd-70" value="" style="endArrow=classic;html=1;rounded=0;" edge="1" parent="1" target="GiPp7j_yuH_umTJ94Pbd-71">
          <mxGeometry width="50" height="50" relative="1" as="geometry">
            <mxPoint x="90" y="850" as="sourcePoint" />
            <mxPoint x="90" y="900" as="targetPoint" />
          </mxGeometry>
        </mxCell>
        <mxCell id="GiPp7j_yuH_umTJ94Pbd-72" style="edgeStyle=orthogonalEdgeStyle;rounded=0;orthogonalLoop=1;jettySize=auto;html=1;" edge="1" parent="1" source="GiPp7j_yuH_umTJ94Pbd-71">
          <mxGeometry relative="1" as="geometry">
            <mxPoint x="230" y="960" as="targetPoint" />
            <Array as="points">
              <mxPoint x="90" y="960" />
            </Array>
          </mxGeometry>
        </mxCell>
        <mxCell id="GiPp7j_yuH_umTJ94Pbd-71" value="board[row][col] = 0; }" style="rounded=0;whiteSpace=wrap;html=1;" vertex="1" parent="1">
          <mxGeometry x="35" y="890" width="110" height="40" as="geometry" />
        </mxCell>
        <mxCell id="GiPp7j_yuH_umTJ94Pbd-75" value="" style="endArrow=classic;html=1;rounded=0;entryX=0;entryY=0.5;entryDx=0;entryDy=0;" edge="1" parent="1" target="GiPp7j_yuH_umTJ94Pbd-55">
          <mxGeometry width="50" height="50" relative="1" as="geometry">
            <mxPoint x="230" y="960" as="sourcePoint" />
            <mxPoint x="265" y="980" as="targetPoint" />
            <Array as="points">
              <mxPoint x="230" y="1040" />
              <mxPoint x="-140" y="1040" />
              <mxPoint x="-130" y="405" />
            </Array>
          </mxGeometry>
        </mxCell>
        <mxCell id="GiPp7j_yuH_umTJ94Pbd-76" value="return false;" style="whiteSpace=wrap;html=1;" vertex="1" parent="1">
          <mxGeometry x="320" y="387.5" width="100" height="35" as="geometry" />
        </mxCell>
        <mxCell id="GiPp7j_yuH_umTJ94Pbd-80" value="" style="edgeStyle=orthogonalEdgeStyle;rounded=0;orthogonalLoop=1;jettySize=auto;html=1;" edge="1" parent="1" source="GiPp7j_yuH_umTJ94Pbd-78" target="GiPp7j_yuH_umTJ94Pbd-79">
          <mxGeometry relative="1" as="geometry" />
        </mxCell>
        <mxCell id="GiPp7j_yuH_umTJ94Pbd-78" value="void solveNQueens() {" style="shape=process;whiteSpace=wrap;html=1;backgroundOutline=1;" vertex="1" parent="1">
          <mxGeometry x="747.5" y="40" width="190" height="60" as="geometry" />
        </mxCell>
        <mxCell id="GiPp7j_yuH_umTJ94Pbd-82" value="" style="edgeStyle=orthogonalEdgeStyle;rounded=0;orthogonalLoop=1;jettySize=auto;html=1;" edge="1" parent="1" source="GiPp7j_yuH_umTJ94Pbd-79" target="GiPp7j_yuH_umTJ94Pbd-81">
          <mxGeometry relative="1" as="geometry" />
        </mxCell>
        <mxCell id="GiPp7j_yuH_umTJ94Pbd-79" value="int board[N][N] = { 0 };" style="whiteSpace=wrap;html=1;" vertex="1" parent="1">
          <mxGeometry x="772.5" y="140" width="140" height="30" as="geometry" />
        </mxCell>
        <mxCell id="GiPp7j_yuH_umTJ94Pbd-84" value="" style="edgeStyle=orthogonalEdgeStyle;rounded=0;orthogonalLoop=1;jettySize=auto;html=1;" edge="1" parent="1" source="GiPp7j_yuH_umTJ94Pbd-81" target="GiPp7j_yuH_umTJ94Pbd-83">
          <mxGeometry relative="1" as="geometry">
            <Array as="points">
              <mxPoint x="720" y="263" />
            </Array>
          </mxGeometry>
        </mxCell>
        <mxCell id="GiPp7j_yuH_umTJ94Pbd-95" value="" style="edgeStyle=orthogonalEdgeStyle;rounded=0;orthogonalLoop=1;jettySize=auto;html=1;" edge="1" parent="1" source="GiPp7j_yuH_umTJ94Pbd-81" target="GiPp7j_yuH_umTJ94Pbd-94">
          <mxGeometry relative="1" as="geometry">
            <Array as="points">
              <mxPoint x="1010" y="263" />
            </Array>
          </mxGeometry>
        </mxCell>
        <mxCell id="GiPp7j_yuH_umTJ94Pbd-81" value="&amp;nbsp;if (solveNQueensUtil(board, 0)) {" style="rhombus;whiteSpace=wrap;html=1;" vertex="1" parent="1">
          <mxGeometry x="740" y="210" width="205" height="105" as="geometry" />
        </mxCell>
        <mxCell id="GiPp7j_yuH_umTJ94Pbd-86" value="" style="edgeStyle=orthogonalEdgeStyle;rounded=0;orthogonalLoop=1;jettySize=auto;html=1;" edge="1" parent="1" source="GiPp7j_yuH_umTJ94Pbd-83" target="GiPp7j_yuH_umTJ94Pbd-85">
          <mxGeometry relative="1" as="geometry" />
        </mxCell>
        <mxCell id="GiPp7j_yuH_umTJ94Pbd-97" style="edgeStyle=orthogonalEdgeStyle;rounded=0;orthogonalLoop=1;jettySize=auto;html=1;" edge="1" parent="1" source="GiPp7j_yuH_umTJ94Pbd-83">
          <mxGeometry relative="1" as="geometry">
            <mxPoint x="930" y="680" as="targetPoint" />
            <Array as="points">
              <mxPoint x="870" y="384" />
              <mxPoint x="870" y="680" />
            </Array>
          </mxGeometry>
        </mxCell>
        <mxCell id="GiPp7j_yuH_umTJ94Pbd-83" value="for (int i = 0; i &amp;lt; N; ++i) {" style="shape=hexagon;perimeter=hexagonPerimeter2;whiteSpace=wrap;html=1;fixedSize=1;" vertex="1" parent="1">
          <mxGeometry x="640" y="360" width="160" height="47.5" as="geometry" />
        </mxCell>
        <mxCell id="GiPp7j_yuH_umTJ94Pbd-88" value="" style="edgeStyle=orthogonalEdgeStyle;rounded=0;orthogonalLoop=1;jettySize=auto;html=1;" edge="1" parent="1" source="GiPp7j_yuH_umTJ94Pbd-85" target="GiPp7j_yuH_umTJ94Pbd-87">
          <mxGeometry relative="1" as="geometry" />
        </mxCell>
        <mxCell id="GiPp7j_yuH_umTJ94Pbd-90" style="edgeStyle=orthogonalEdgeStyle;rounded=0;orthogonalLoop=1;jettySize=auto;html=1;entryX=0;entryY=0.5;entryDx=0;entryDy=0;" edge="1" parent="1" source="GiPp7j_yuH_umTJ94Pbd-85" target="GiPp7j_yuH_umTJ94Pbd-83">
          <mxGeometry relative="1" as="geometry">
            <Array as="points">
              <mxPoint x="830" y="511" />
              <mxPoint x="830" y="690" />
              <mxPoint x="590" y="690" />
              <mxPoint x="590" y="384" />
            </Array>
          </mxGeometry>
        </mxCell>
        <mxCell id="GiPp7j_yuH_umTJ94Pbd-85" value="for (int j = 0; j &amp;lt; N; ++j) {" style="shape=hexagon;perimeter=hexagonPerimeter2;whiteSpace=wrap;html=1;fixedSize=1;" vertex="1" parent="1">
          <mxGeometry x="640" y="487.5" width="160" height="47.5" as="geometry" />
        </mxCell>
        <mxCell id="GiPp7j_yuH_umTJ94Pbd-89" style="edgeStyle=orthogonalEdgeStyle;rounded=0;orthogonalLoop=1;jettySize=auto;html=1;entryX=0;entryY=0.5;entryDx=0;entryDy=0;" edge="1" parent="1" source="GiPp7j_yuH_umTJ94Pbd-87" target="GiPp7j_yuH_umTJ94Pbd-85">
          <mxGeometry relative="1" as="geometry">
            <Array as="points">
              <mxPoint x="720" y="640" />
              <mxPoint x="620" y="640" />
              <mxPoint x="620" y="511" />
            </Array>
          </mxGeometry>
        </mxCell>
        <mxCell id="GiPp7j_yuH_umTJ94Pbd-87" value="cout &amp;lt;&amp;lt; board[i][j] &amp;lt;&amp;lt; &quot; &quot;;" style="shape=parallelogram;perimeter=parallelogramPerimeter;whiteSpace=wrap;html=1;fixedSize=1;" vertex="1" parent="1">
          <mxGeometry x="640" y="570" width="160" height="50" as="geometry" />
        </mxCell>
        <mxCell id="GiPp7j_yuH_umTJ94Pbd-92" value="cout &amp;lt;&amp;lt; endl;" style="shape=parallelogram;perimeter=parallelogramPerimeter;whiteSpace=wrap;html=1;fixedSize=1;" vertex="1" parent="1">
          <mxGeometry x="772.5" y="630" width="97.5" height="30" as="geometry" />
        </mxCell>
        <mxCell id="GiPp7j_yuH_umTJ94Pbd-96" style="edgeStyle=orthogonalEdgeStyle;rounded=0;orthogonalLoop=1;jettySize=auto;html=1;" edge="1" parent="1" source="GiPp7j_yuH_umTJ94Pbd-94">
          <mxGeometry relative="1" as="geometry">
            <mxPoint x="930" y="680" as="targetPoint" />
            <Array as="points">
              <mxPoint x="1010" y="680" />
            </Array>
          </mxGeometry>
        </mxCell>
        <mxCell id="GiPp7j_yuH_umTJ94Pbd-94" value="cout &amp;lt;&amp;lt; &quot;Решение не найдено&quot; &amp;lt;&amp;lt; endl;" style="shape=parallelogram;perimeter=parallelogramPerimeter;whiteSpace=wrap;html=1;fixedSize=1;" vertex="1" parent="1">
          <mxGeometry x="880" y="377.5" width="260" height="30" as="geometry" />
        </mxCell>
        <mxCell id="GiPp7j_yuH_umTJ94Pbd-98" value="return 0; }" style="ellipse;whiteSpace=wrap;html=1;" vertex="1" parent="1">
          <mxGeometry x="1222.5" y="340" width="105" height="30" as="geometry" />
        </mxCell>
      </root>
    </mxGraphModel>
  </diagram>
</mxfile>
